# xmcd
#
# Track frame offsets: 
#        150
#        17100
#        37652
#        51763
#        75774
#        91136
#        116272
#        128310
#        147492
#        171031
#        190483
#
# Disc length: 2841 seconds
#
# Revision: 0
# Processed by: cddbd v1.4PL0 Copyright (c) Steve Scherf et al.
# Submitted via: ExactAudioCopy v0.90b4
#
DISCID=780b170b
DTITLE=Lisa Sanders - Isn't Life Fine
DYEAR=1997
DGENRE=
TTITLE0=Truly Divine
TTITLE1=Rainbow
TTITLE2=Shadows From My Eyes
TTITLE3=Where's Home
TTITLE4=Sea In Your Eyes
TTITLE5=The Jewel
TTITLE6=Lazy Days
TTITLE7=Black On Blue
TTITLE8=Isn't Life Fine
TTITLE9=Life's Funny That Way
TTITLE10=Hanna's Lullaby
EXTD=
EXTT0=
EXTT1=
EXTT2=
EXTT3=
EXTT4=
EXTT5=
EXTT6=
EXTT7=
EXTT8=
EXTT9=
EXTT10=
PLAYORDER=
